<svg width="1600" height="620" viewBox="0 0 1600 620" fill="none" xmlns="http://www.w3.org/2000/svg">
  <defs>
    <linearGradient id="bg" x1="144" y1="48" x2="1418" y2="572" gradientUnits="userSpaceOnUse">
      <stop stop-color="#281134"/>
      <stop offset="0.45" stop-color="#170D22"/>
      <stop offset="1" stop-color="#120916"/>
    </linearGradient>
    <radialGradient id="glowA" cx="0" cy="0" r="1" gradientUnits="userSpaceOnUse" gradientTransform="translate(518 168) rotate(33.8) scale(544 224)">
      <stop stop-color="#FF8D3A" stop-opacity="0.5"/>
      <stop offset="1" stop-color="#FF8D3A" stop-opacity="0"/>
    </radialGradient>
    <radialGradient id="glowB" cx="0" cy="0" r="1" gradientUnits="userSpaceOnUse" gradientTransform="translate(1136 132) rotate(167.4) scale(408 172)">
      <stop stop-color="#9B6BFF" stop-opacity="0.5"/>
      <stop offset="1" stop-color="#9B6BFF" stop-opacity="0"/>
    </radialGradient>
    <linearGradient id="ember" x1="0" y1="0" x2="1" y2="1">
      <stop stop-color="#FFB047"/>
      <stop offset="1" stop-color="#FF5F1F"/>
    </linearGradient>
    <filter id="blur" x="-20%" y="-20%" width="140%" height="140%">
      <feGaussianBlur stdDeviation="10"/>
    </filter>
  </defs>

  <rect width="1600" height="620" rx="28" fill="url(#bg)"/>
  <rect width="1600" height="620" rx="28" fill="url(#glowA)"/>
  <rect width="1600" height="620" rx="28" fill="url(#glowB)"/>

  <g opacity="0.22">
    <path d="M78 124L196 36L262 154L114 228L78 124Z" stroke="#FF8A3D" stroke-width="2"/>
    <path d="M1420 86L1546 158L1462 286L1324 198L1420 86Z" stroke="#A275FF" stroke-width="2"/>
    <path d="M224 438L364 410L410 554L246 590L224 438Z" stroke="#FF8A3D" stroke-width="2"/>
    <path d="M1228 388L1414 416L1368 576L1182 540L1228 388Z" stroke="#A275FF" stroke-width="2"/>
  </g>

  <g opacity="0.32">
    <path d="M0 110L238 0" stroke="#A275FF" stroke-width="4"/>
    <path d="M1362 0L1600 178" stroke="#FF6A2A" stroke-width="4"/>
    <path d="M0 534L184 620" stroke="#FF6A2A" stroke-width="4"/>
    <path d="M1410 620L1600 490" stroke="#A275FF" stroke-width="4"/>
  </g>

  <g opacity="0.85">
    <path d="M220 72H378V108H220V72Z" fill="#483B66"/>
    <path d="M220 124H444V140H220V124Z" fill="#483B66"/>
    <path d="M1154 84H1366V116H1154V84Z" fill="#433261"/>
    <path d="M1108 136H1388V152H1108V136Z" fill="#433261"/>
    <path d="M142 468H324V500H142V468Z" fill="#483B66"/>
    <path d="M1198 452H1448V484H1198V452Z" fill="#433261"/>
  </g>

  <g opacity="0.3">
    <circle cx="504" cy="74" r="2" fill="#FFF6DA"/>
    <circle cx="598" cy="118" r="1.6" fill="#FFF6DA"/>
    <circle cx="804" cy="94" r="2.2" fill="#FFF6DA"/>
    <circle cx="990" cy="72" r="1.6" fill="#FFF6DA"/>
    <circle cx="1088" cy="132" r="2.2" fill="#FFF6DA"/>
    <circle cx="1274" cy="104" r="1.8" fill="#FFF6DA"/>
    <circle cx="312" cy="206" r="1.4" fill="#FFF6DA"/>
    <circle cx="1332" cy="222" r="1.6" fill="#FFF6DA"/>
    <circle cx="892" cy="286" r="1.8" fill="#FFF6DA"/>
    <circle cx="756" cy="344" r="1.4" fill="#FFF6DA"/>
    <circle cx="618" cy="402" r="1.8" fill="#FFF6DA"/>
  </g>

  <g filter="url(#blur)" opacity="0.85">
    <path d="M126 562L198 440L232 464L148 578L126 562Z" fill="url(#ember)"/>
    <path d="M514 536L602 452L620 474L534 556L514 536Z" fill="url(#ember)"/>
    <path d="M944 560L1038 478L1054 496L964 578L944 560Z" fill="url(#ember)"/>
    <path d="M1324 540L1432 454L1450 472L1346 556L1324 540Z" fill="url(#ember)"/>
  </g>

  <g opacity="0.66">
    <path d="M218 310L336 256" stroke="#FF8A3D" stroke-width="8" stroke-linecap="round"/>
    <path d="M478 184L552 144" stroke="#FFBE74" stroke-width="6" stroke-linecap="round"/>
    <path d="M1120 228L1238 170" stroke="#FF8A3D" stroke-width="8" stroke-linecap="round"/>
    <path d="M1332 306L1458 250" stroke="#FFBE74" stroke-width="6" stroke-linecap="round"/>
    <path d="M768 164L856 118" stroke="#FFF0C4" stroke-width="6" stroke-linecap="round"/>
  </g>
</svg>
